<svg xmlns="http://www.w3.org/2000/svg" viewBox="0 0 1000 1000"><g opacity=".15"><path fill="none" stroke="#474747" stroke-width="6" stroke-linecap="round" stroke-linejoin="round" stroke-miterlimit="10" d="M157.546 387.924h79.35v38.68h-79.35M316.245 426.604h-79.349M236.896 387.924h30.383M197.221 426.604h79.349v38.681h-79.349zM169.887 465.471h67.009v38.681h-25.675"/><path fill="none" stroke="#474747" stroke-width="6" stroke-linecap="round" stroke-linejoin="round" stroke-miterlimit="10" d="M236.896 465.471h79.349v38.681h-79.349zM580.534 527.965h79.349v38.681h-79.349M739.233 566.646h-79.35M659.883 527.965h30.384"/><path fill="none" stroke="#474747" stroke-width="6" stroke-linecap="round" stroke-linejoin="round" stroke-miterlimit="10" d="M620.209 566.646h79.349v38.681h-79.349zM592.875 605.512h67.008v38.681h-25.674M711.018 644.193h-51.135v-38.681h66.068M321.799 242.963h123.142v99.822H321.799z"/><path fill="none" stroke="#474747" stroke-width="6" stroke-linecap="round" stroke-linejoin="round" stroke-miterlimit="10" d="M338.784 319.669l22.562-32.667 23.334 28.916"/><path fill="none" stroke="#474747" stroke-width="6" stroke-linecap="round" stroke-linejoin="round" stroke-miterlimit="10" d="M376.117 305.307l31.48-30.556 22.34 44.918"/><path d="M367.893 295.123c1.557-4.717 6.001-8.121 11.239-8.121 4.316 0 8.092 2.311 10.159 5.762M765.022 410.195H589.881c-6.466 0-11.708-5.242-11.708-11.708h0c0-6.466 5.242-11.708 11.708-11.708h175.141c6.466 0 11.708 5.242 11.708 11.708h0c-.001 6.467-5.242 11.708-11.708 11.708z" fill="none" stroke="#474747" stroke-width="6" stroke-linecap="round" stroke-linejoin="round" stroke-miterlimit="10"/><path fill="none" stroke="#474747" stroke-width="6" stroke-linecap="round" stroke-linejoin="round" stroke-miterlimit="10" d="M704.82 386.78h-51.283l-10.667-65.439h72.616zM633.18 302.339h92.307v19.002H633.18zM691.057 302.339h-18.939c-5.152-18.138-9.68-37.143-9.124-55.678.663-8.883 10.26-16.408 18.594-16.405h0c8.333-.003 17.93 7.522 18.594 16.405.555 18.536-3.973 37.54-9.125 55.678zM700.689 244.403l13.118-21.702c2.525-4.176 8.203-5.072 11.89-1.875h0c3.687 3.197 3.605 8.945-.172 12.035l-24.575 20.111"/><path d="M713.998 222.469l-6.249-19.394c-.96-2.981.996-6.108 4.096-6.548h0a5.05 5.05 0 015.757 5.149l-.464 15.674" fill="none" stroke="#474747" stroke-width="6" stroke-linecap="round" stroke-linejoin="round" stroke-miterlimit="10"/></g><path fill="#77ba85" d="M672.018 376.612L540.07 647.28l-130.648-63.69 131.946-270.667z"/><path fill="none" stroke="#474747" stroke-width="6.000119999999999" stroke-linecap="round" stroke-linejoin="round" stroke-miterlimit="10" d="M672.018 376.612L540.07 647.28l-130.648-63.69 131.946-270.667z"/><path d="M620.269 369.902l-41.763-20.362c-7.93 16.264-27.542 23.02-43.806 15.09L431.718 575.854l100.659 49.077L635.36 413.708c-16.264-7.93-23.02-27.542-15.091-43.806z" fill="#f6f9ea"/><path d="M620.269 369.902l-41.763-20.362c-7.93 16.264-27.542 23.02-43.806 15.09L431.718 575.854l100.659 49.077L635.36 413.708c-16.264-7.93-23.02-27.542-15.091-43.806z" fill="none" stroke="#474747" stroke-width="6" stroke-linecap="round" stroke-linejoin="round" stroke-miterlimit="10"/><path fill="none" stroke="#474747" stroke-width="6.000119999999999" stroke-linecap="round" stroke-linejoin="round" stroke-miterlimit="10" d="M549.096 335.176l100.664 49.072-117.33 240.684-100.664-49.073z"/><circle cx="550.7" cy="458.956" r="34.313" fill="#77ba85"/><circle cx="550.7" cy="458.956" r="34.313" fill="none" stroke="#474747" stroke-width="6" stroke-linecap="round" stroke-linejoin="round" stroke-miterlimit="10"/><path fill="#97cd78" d="M770.212 469.4L537.363 660.302l-92.147-112.394 232.848-190.903z"/><path fill="none" stroke="#474747" stroke-width="5.99982" stroke-linecap="round" stroke-linejoin="round" stroke-miterlimit="10" d="M770.212 469.4L537.363 660.302l-92.147-112.394 232.848-190.903z"/><path d="M725.951 441.747l-29.458-35.93c-13.992 11.472-34.635 9.429-46.107-4.563l-181.721 148.99 71.002 86.6 181.721-148.99c-11.472-13.993-9.429-34.635 4.563-46.107z" fill="#f6f9ea"/><path d="M725.951 441.747l-29.458-35.93c-13.992 11.472-34.635 9.429-46.107-4.563l-181.721 148.99 71.002 86.6 181.721-148.99c-11.472-13.993-9.429-34.635 4.563-46.107z" fill="none" stroke="#474747" stroke-width="6" stroke-linecap="round" stroke-linejoin="round" stroke-miterlimit="10"/><path fill="none" stroke="#474747" stroke-width="5.99982" stroke-linecap="round" stroke-linejoin="round" stroke-miterlimit="10" d="M675.713 380.465l70.999 86.6-207.053 169.754-71-86.598z"/><circle cx="625.57" cy="493.651" r="34.313" fill="#97cd78"/><circle cx="625.57" cy="493.651" r="34.313" fill="none" stroke="#474747" stroke-width="6" stroke-linecap="round" stroke-linejoin="round" stroke-miterlimit="10"/><path d="M629.416 457.724c0-17.781-6.675-34.024-17.637-46.385L445.192 547.92l92.151 112.396 92.073-75.489V457.724z" opacity=".32" fill="#474747" stroke="#474747" stroke-width="6" stroke-linecap="round" stroke-linejoin="round" stroke-miterlimit="10"/><path opacity=".15" fill="none" stroke="#474747" stroke-width="6" stroke-linecap="round" stroke-linejoin="round" stroke-miterlimit="10" d="M169 748.723h662"/><g><path d="M559.416 748.723h-210c-33.137 0-60-26.863-60-60v-236c0-33.137 26.863-60 60-60h210c33.137 0 60 26.863 60 60v236c0 33.137-26.863 60-60 60z" fill="#f58870"/><path d="M559.416 748.723h-210c-33.137 0-60-26.863-60-60v-236c0-33.137 26.863-60 60-60h210c33.137 0 60 26.863 60 60v236c0 33.137-26.863 60-60 60z" fill="#f58870"/><path d="M559.416 736.604h-210c-33.137 0-60-26.863-60-60v12.12c0 33.137 26.863 60 60 60h210c33.137 0 60-26.863 60-60v-12.12c0 33.137-26.863 60-60 60z" fill="#dd7868"/><path d="M559.416 392.723h-210c-33.137 0-60 24.682-60 55.129v12.864c0-30.447 26.863-55.129 60-55.129h210c33.137 0 60 24.682 60 55.129v-12.864c0-30.446-26.863-55.129-60-55.129z" fill="#ffa399"/><path d="M489.416 539.199h-54c-9.941 0-18-8.059-18-18V410.723c0-9.941 8.059-18 18-18h72v128.476c0 9.941-8.059 18-18 18z" opacity=".3" fill="#474747" stroke="#474747" stroke-width="6" stroke-linecap="round" stroke-linejoin="round" stroke-miterlimit="10"/><path d="M559.416 748.723h-210c-33.137 0-60-26.863-60-60v-236c0-33.137 26.863-60 60-60h210c33.137 0 60 26.863 60 60v236c0 33.137-26.863 60-60 60z" fill="none" stroke="#474747" stroke-width="6" stroke-linecap="round" stroke-linejoin="round" stroke-miterlimit="10"/><path d="M311.416 687.197V454.25c0-20.987 17.013-38 38-38h210c20.987 0 38 17.013 38 38v232.947c0 20.987-17.013 38-38 38h-210c-20.987 0-38-17.013-38-38z" fill="none" stroke="#474747" stroke-width="4" stroke-linecap="round" stroke-linejoin="round" stroke-dasharray="13.9577,9.9698" opacity=".46"/><path d="M481.416 528.199h-54c-9.941 0-18-8.059-18-18v-122c0-9.941 8.059-18 18-18h54c9.941 0 18 8.059 18 18v122c0 9.941-8.059 18-18 18z" fill="#f79765"/><path d="M481.416 519.866h-54c-9.941 0-18-8.059-18-18v8.333c0 9.941 8.059 18 18 18h54c9.941 0 18-8.059 18-18v-8.333c0 9.941-8.059 18-18 18z" fill="#e27444"/><path d="M481.416 370.199h-54c-9.941 0-18 8.059-18 18V395c0-9.941 8.059-18 18-18h54c9.941 0 18 8.059 18 18v-6.801c0-9.941-8.059-18-18-18z" fill="#ffb797"/><path d="M481.416 528.199h-54c-9.941 0-18-8.059-18-18v-122c0-9.941 8.059-18 18-18h54c9.941 0 18 8.059 18 18v122c0 9.941-8.059 18-18 18z" fill="none" stroke="#474747" stroke-width="6" stroke-linecap="round" stroke-linejoin="round" stroke-miterlimit="10"/><circle cx="457.416" cy="479.25" r="23.25" opacity=".3" fill="#474747" stroke="#474747" stroke-width="6" stroke-linecap="round" stroke-linejoin="round" stroke-miterlimit="10"/><path d="M427.416 516.199c-3.309 0-6-2.691-6-6v-122c0-3.309 2.691-6 6-6h54c3.309 0 6 2.691 6 6v122c0 3.309-2.691 6-6 6h-54z" fill="none" stroke="#474747" stroke-width="4" stroke-linecap="round" stroke-linejoin="round" stroke-dasharray="9.8393,11.8071" opacity=".46"/><circle cx="454.416" cy="473.25" r="23.25" fill="#8f6d5d"/><circle cx="454.416" cy="473.25" r="23.25" fill="none" stroke="#474747" stroke-width="6" stroke-linecap="round" stroke-linejoin="round" stroke-miterlimit="10"/><path d="M464.22 461.33c.846 3.781-3.672 6.207-10.329 7.58-6.668 1.318-12.658 1.541-13.478-1.663-.846-3.147 3.671-8.986 10.329-10.881 6.667-1.949 12.657 1.241 13.478 4.964z" fill="#fffcee" opacity=".6"/></g><g><path d="M788.31 748.723h-70.025a7.267 7.267 0 01-7.267-7.267V736.6a7.267 7.267 0 017.267-7.267h70.025a7.267 7.267 0 017.267 7.267v4.856a7.266 7.266 0 01-7.267 7.267z" fill="#fdb740"/><path d="M788.31 731.333h-70.025a7.267 7.267 0 00-7.267 7.267v2.833a7.267 7.267 0 017.267-7.267h70.025a7.267 7.267 0 017.267 7.267V738.6a7.266 7.266 0 00-7.267-7.267z" opacity=".88" fill="#fff3c0"/><path d="M788.31 746.534h-70.025a7.267 7.267 0 01-7.267-7.267v-2.833a7.267 7.267 0 007.267 7.267h70.025a7.267 7.267 0 007.267-7.267v2.833a7.266 7.266 0 01-7.267 7.267z" fill="#f29e25"/><path d="M788.31 748.723h-70.025a7.267 7.267 0 01-7.267-7.267V736.6a7.267 7.267 0 017.267-7.267h70.025a7.267 7.267 0 017.267 7.267v4.856a7.266 7.266 0 01-7.267 7.267z" fill="none" stroke="#474747" stroke-width="6" stroke-linecap="round" stroke-linejoin="round" stroke-miterlimit="10"/></g><g><path d="M799.964 729.333h-70.025a7.267 7.267 0 01-7.267-7.267v-4.856a7.267 7.267 0 017.267-7.267h70.025a7.267 7.267 0 017.267 7.267v4.856a7.267 7.267 0 01-7.267 7.267z" fill="#fdb740"/><path d="M799.964 711.943h-70.025a7.267 7.267 0 00-7.267 7.267v2.833a7.267 7.267 0 017.267-7.267h70.025a7.267 7.267 0 017.267 7.267v-2.833a7.268 7.268 0 00-7.267-7.267z" opacity=".88" fill="#fff3c0"/><path d="M799.964 727.144h-70.025a7.267 7.267 0 01-7.267-7.267v-2.833a7.267 7.267 0 007.267 7.267h70.025a7.267 7.267 0 007.267-7.267v2.833a7.267 7.267 0 01-7.267 7.267z" fill="#f29e25"/><path d="M799.964 729.333h-70.025a7.267 7.267 0 01-7.267-7.267v-4.856a7.267 7.267 0 017.267-7.267h70.025a7.267 7.267 0 017.267 7.267v4.856a7.267 7.267 0 01-7.267 7.267z" fill="none" stroke="#474747" stroke-width="6" stroke-linecap="round" stroke-linejoin="round" stroke-miterlimit="10"/></g><g><path d="M788.31 709.943h-70.025a7.267 7.267 0 01-7.267-7.267v-4.856a7.267 7.267 0 017.267-7.267h70.025a7.267 7.267 0 017.267 7.267v4.856a7.266 7.266 0 01-7.267 7.267z" fill="#fdb740"/><path d="M788.31 692.553h-70.025a7.267 7.267 0 00-7.267 7.267v2.833a7.267 7.267 0 017.267-7.267h70.025a7.267 7.267 0 017.267 7.267v-2.833a7.266 7.266 0 00-7.267-7.267z" opacity=".88" fill="#fff3c0"/><path d="M788.31 707.754h-70.025a7.267 7.267 0 01-7.267-7.267v-2.833a7.267 7.267 0 007.267 7.267h70.025a7.267 7.267 0 007.267-7.267v2.833a7.266 7.266 0 01-7.267 7.267z" fill="#f29e25"/><path d="M788.31 709.943h-70.025a7.267 7.267 0 01-7.267-7.267v-4.856a7.267 7.267 0 017.267-7.267h70.025a7.267 7.267 0 017.267 7.267v4.856a7.266 7.266 0 01-7.267 7.267z" fill="none" stroke="#474747" stroke-width="6" stroke-linecap="round" stroke-linejoin="round" stroke-miterlimit="10"/></g><g><path d="M709.059 695.28l-47.835 51.14a7.267 7.267 0 01-10.272.343l-3.546-3.317a7.267 7.267 0 01-.343-10.272l47.835-51.14a7.267 7.267 0 0110.272-.343l3.546 3.317a7.268 7.268 0 01.343 10.272z" fill="#fdb740"/><path d="M696.358 683.401l-47.835 51.14a7.268 7.268 0 00.343 10.272l2.069 1.935a7.267 7.267 0 01-.343-10.272l47.835-51.14a7.268 7.268 0 0110.272-.343l-2.069-1.935a7.268 7.268 0 00-10.272.343z" opacity=".88" fill="#fff3c0"/><path d="M707.46 693.785l-47.835 51.14a7.267 7.267 0 01-10.272.343l-2.069-1.935a7.268 7.268 0 0010.272-.343l47.835-51.14a7.268 7.268 0 00-.343-10.272l2.069 1.935a7.268 7.268 0 01.343 10.272z" fill="#f29e25"/><path d="M709.059 695.28l-47.835 51.14a7.267 7.267 0 01-10.272.343l-3.546-3.317a7.267 7.267 0 01-.343-10.272l47.835-51.14a7.267 7.267 0 0110.272-.343l3.546 3.317a7.268 7.268 0 01.343 10.272z" fill="none" stroke="#474747" stroke-width="6" stroke-linecap="round" stroke-linejoin="round" stroke-miterlimit="10"/></g></svg>