<svg xmlns="http://www.w3.org/2000/svg" viewBox="0 0 390.286 406.58"><g data-name="Layer 2"><g data-name="Layer 1"><path d="M315.857 249.673c17.135 24.388 16.108 31.056 18.7 43.798 6.043 29.712-8.342 54.112-9.99 56.815-16.915 27.74-45.691 35.018-56.667 37.794-30.485 7.71-45.904 4.75-57.167.66-8.063-2.93-71.1-38.964-79.86-43.015-14.493-6.703-29.084-5.947-45.747-5.084-13.569.703-14.211 2.432-23.15 1.857-1.471-.095-20.733-1.52-35.192-11.661C-.634 311.609-4.161 265.69 5.095 236.292a291.647 291.647 0 0113.606-33.71c7.148-15.06 12.268-22.616 13.791-36.119.913-8.088 1.705-15.11-2.041-22.317-5.95-11.444 1.657-50.493 6.844-60.6C58.94 41.377 225.68-42.23 293.562 26.95c24.276 24.74 26.264 53.057 26.264 53.057 1.178 16.777-4.113 31.934-10.13 49.175-8.483 24.302-13.182 24.33-17.772 42.231-2.14 8.348.041 44.256 23.933 78.261z" fill="#dff2c4"/><path d="M315.857 249.673c17.135 24.388 16.108 31.056 18.7 43.798 6.043 29.712-8.342 54.112-9.99 56.815-16.915 27.74-45.691 35.018-56.667 37.794-30.485 7.71-45.904 4.75-57.167.66-8.063-2.93-71.1-38.964-79.86-43.015-14.493-6.703-29.084-5.947-45.747-5.084-13.569.703-14.211 2.432-23.15 1.857-1.471-.095-20.733-1.52-35.192-11.661C-.634 311.609-4.161 265.69 5.095 236.292a291.647 291.647 0 0113.606-33.71c7.148-15.06 12.268-22.616 13.791-36.119.913-8.088 1.705-15.11-2.041-22.317-5.95-11.444 1.657-50.493 6.844-60.6C58.94 41.377 225.68-42.23 293.562 26.95c24.276 24.74 26.264 53.057 26.264 53.057 1.178 16.777-4.113 31.934-10.13 49.175-8.483 24.302-13.182 24.33-17.772 42.231-2.14 8.348.041 44.256 23.933 78.261z" fill="none" stroke="#f4d8d3" stroke-miterlimit="10"/><path d="M4.326 397.684l12.06-.315 12.062-.238 24.123-.47q24.122-.369 48.245-.61c16.081-.193 32.163-.236 48.245-.35l48.245-.116 48.245.11c16.082.118 32.163.155 48.245.35q24.123.213 48.245.61l24.123.473 12.06.24 12.062.316-12.061.318-12.061.24-24.123.472q-24.122.369-48.245.61c-16.082.195-32.163.232-48.245.35l-48.245.11-48.245-.116c-16.082-.114-32.164-.157-48.245-.35q-24.123-.212-48.245-.61l-24.123-.47L16.387 398z" fill="#6a3313"/><path d="M154.734 278.18c-1.85 2.304-1.004 23.956-3.02 26.097-2.006.602-14.677-15.58-16.11-16.14-4.958-4.193-5.565-10.026-11.458-12.78-1.412-.91 1.858-3.217 1.012-5.081a19.593 19.593 0 01-.1-3.05 66.905 66.905 0 00-.85-14.444 30.164 30.164 0 01-.391-4.157 1.546 1.546 0 01.75-.635 5.601 5.601 0 011.484-.271c5.73.399 11.457.854 17.195 1.15a6.228 6.228 0 013.638 1.223c1.955 3.06 2.95 6.547 4.357 9.85 1.77 4.153 3.418 8.358 5.12 12.541a9.663 9.663 0 01-1.627 5.697zM119.83 347.807a9.717 9.717 0 01-.304-2.886c3.682.393 7.366.756 11.043 1.183 6.072.704 12.14 1.453 18.21 2.173a3.828 3.828 0 011.858.488 2.352 2.352 0 01.926 1.938c-.023 7.285.794 14.616-1.155 21.799-.564 1.017-.76 2.181-1.258 3.227a1.823 1.823 0 01-.038.508c-2.475 2.574-4.43 5.628-7.275 7.86q-.303.248-.614.486l.016-.022c-4.602 2.35-9.505 2.794-14.555 2.303-1.295-.413-1.752-1.534-2.177-2.655-.47-1.239-.734-2.281-1.078-3.318a29.683 29.683 0 01-1.469-8.303c-.163-4.564-.353-10.695-.76-13.988-.308-2.49-1.24-10.077-1.37-10.793z" fill="#cb9b56"/><path d="M123.399 279.26c1.614.22 2.928 1.221 4.44 1.706 3.269.474 5.478 2.885 8.101 4.513a30.703 30.703 0 014.756 3.824 5.13 5.13 0 01.512.573 2.578 2.578 0 01.356.673 1.488 1.488 0 01-.228 1.082c-4.513 4.397-9.01 8.81-13.543 13.186-2.797 2.699-5.391 5.608-8.394 8.093.198-4.518.415-9.035.58-13.554.035-.984 2.201-15.456 3.42-20.097zM118.386 322.234q12.947-12.71 25.898-25.417c.463-.454.967-.867 1.453-1.299 2.055-.077 2.29 1.837 3.249 2.963a3.757 3.757 0 01.307.735c.017.131.03.264.045.396a2.21 2.21 0 01-.416.666 48.651 48.651 0 01-17.062 18.067 13.315 13.315 0 01-4.345 1.857c-1.042.22-2.295 1.147-3.062-.1-.82-1.334.878-1.799 1.387-2.69.094-.144.032-.105-.144.142-.613.865-2.268 1.474-1.626 2.623.707 1.264 2.133.382 3.285.114 4.346-1.014 7.643-3.806 10.847-6.608a45.65 45.65 0 0010.77-13.464.842.842 0 01.704-.362 2.483 2.483 0 011.09.712 6.91 6.91 0 011.896 4.16c.276 8.024-.754 16.014-.56 24.037a7.49 7.49 0 01-1.212 4.803c-4.762.235-9.483-.503-14.236-.609-5.953-.133-11.898-.67-17.846-1.034-1.415-3.175-.806-6.438-.422-9.692z" fill="#cb9b56"/><path d="M263.547 256.157c-6.672 4.093-12.07 9.658-17.433 15.247-14.428 15.036-27.897 30.856-39.339 48.325-2.003.42-1.96-1.333-2.35-2.387-2.307-6.264-3.508-12.82-4.935-19.314a11.28 11.28 0 01-.19-1.346c-1.695-10.538-5.032-20.61-8.593-30.627-.7-1.97-1.86-3.918-1.22-6.18 5.905-1.326 11.8-2.698 17.718-3.966q25.684-5.501 51.382-10.934c2.332-.495 2.325-.492 3.08 1.73.838 2.47 1.638 4.955 2.56 7.394a1.425 1.425 0 01-.68 2.058zm58.734 77.663c-.571-5.89-5.744-10.38-11.365-9.444-2.577.428-3.955-.437-5.392-2.336-9.054-11.981-16.065-25.136-22.487-38.644a4.43 4.43 0 01-.044-4.268c.366-2.762 1.487-5.302 2.285-7.938.258-.851 1.103-2.425-1.151-1.977a21.974 21.974 0 00-4.68 1.756c-1.986.795-2.014.84-2.776-1.059-3.318-8.29-6.772-16.538-9.416-25.08-2.554-8.268-4.845-16.617-7.505-24.845-.958-2.955-.541-5.184 1.534-7.374 2.176-2.297 4.201-4.74 6.293-7.117a4.949 4.949 0 001.311-4.646 56.495 56.495 0 00-3.414-10.027c-1.08-2.3-3.097-3.128-5.506-3.044a15.778 15.778 0 00-3.02.537c-3.618.857-7.23 1.75-10.846 2.622-.603.146-1.25.596-1.773-.137-.75-1.045-1.74-.815-2.779-.622-1.462.274-2.938.456-4.408.68a2.113 2.113 0 01-.784.239c-.711.086-1.697-.348-2.067.372-.431.843.395 1.524.924 2.145 1.202 1.412 2.297 2.905 3.364 4.417a3.721 3.721 0 003.187 1.893 5.5 5.5 0 004.492-1.87 3.399 3.399 0 011.922-1.084c3.092-.703 6.209-1.306 9.307-1.994a2.114 2.114 0 012.596 1.058c1.935 3.375 1.77 5.047-.97 7.772-1.064 1.056-1.893 2.31-2.898 3.409-4.54 4.951-5.321 10.458-2.663 16.577a96.677 96.677 0 013.56 10.318c1.19 3.893 1.016 4.117-2.992 4.99-21.52 4.686-43.106 9.061-64.593 13.895-1.683.482-3.425.69-5.111 1.148a16.578 16.578 0 01-3.028.499c-5.077 1.24-10.25 2.042-15.308 3.372-2.176.443-4.3 1.129-6.518 1.403-1.212-.216-1.51-1.255-1.971-2.162-1.311-2.577-2.022-5.414-3.479-7.926-1.479-4.59-5.456-8.363-4.526-13.76.076-.431-.238-.89-.434-1.316-1.456-3.154-1.456-3.151 1.787-4.63.935-.428 1.927-.714 2.874-1.103 2.761-1.135 5.573-2.193 7.603-4.546 1.16-1.638 1.731-3.3.202-5.044-2.764-2.355-5.369-.412-7.848.496a55.714 55.714 0 01-23.047 3.111 79.947 79.947 0 00-1.42-.02c-.966-.06-1.935-.016-2.904-.016-2.658-.006-5.318.036-7.976.017-3.6.666-5.01 2.154-5.336 5.63-.493 5.253 1.966 8.065 7.235 8.261a17.824 17.824 0 002.22-.014c.62-.01 1.236.04 1.852-.014a50.252 50.252 0 017.783.502 3.64 3.64 0 013.406 2.386 5.426 5.426 0 004.52 3.694 4.454 4.454 0 013.663 2.616c.846 1.549 1.818 3.03 2.563 4.638 3.353 7.318 6.232 14.835 9.363 22.249 1.529 2.296.563 3.968-1.342 5.408-1.98 2.316-9.097 9.36-10.604 12.105.546 2.322.332 3.654 2.76 3.96 2.056-.681 9.22-7.811 10.85-9.035 2.71-2.03 2.671-2.098 3.904.93q8.868 21.786 17.941 43.483c.571 1.37 1.43 3.605-.288 3.851-3.127.448-4.095.874-6.156.706-1.384-.112-6.423-1.565-6.56-2.658-.208-1.655.01-3.38-.91-4.898a3.573 3.573 0 00-.566-.765c-.675-.652-1.227-.17-1.933.939-1.636 2.573 1.362 4.811-1.316 6.298-.338.19-.691.367-1.055.533-3.025.14-6.008-.659-9.038-.544-.283.009-.569.028-.855.056-1.476-.126-2.963-.081-4.444-.202-8.78-.708-17.586-.915-26.38-1.478-.392.025-.784.045-1.174.061a21.647 21.647 0 01-7.506-.745c2.462-2.534 4.862-4.9 7.249-7.276v-.003l.274-.271c1.975-2.39 4.596-4.084 6.772-6.266q9.293-9.318 18.605-18.619a8.374 8.374 0 002.112-2.515.31.31 0 00.02-.045c-.678-2.87-2.437-4.41-5-4.369a12.556 12.556 0 00-3.162 2.689c-6.394 6.316-12.645 12.777-19.114 19.014-3.711 3.938-8.145 7.122-11.719 11.194a5.435 5.435 0 01-6.11 1.905c-5.148-1.24-10.666 1.969-13.018 7.016-2.403 5.15-.983 10.682 3.719 14.502 3.904 3.173 10.438 3.814 13.97.302 3.515-3.492 7.136-3.302 11.234-2.562.882.16 1.758.367 2.649.45.129.012.255.023.384.029 10.273 1.392 20.588 2.45 30.866 3.792q.252.012.505.033c2.573.202 5.108.815 7.713.667.09-.006.182-.011.271-.011a5.54 5.54 0 001.667-.143c3.226-1.12-3.02-1.084-.562-3.907l-.017-.678a77.92 77.92 0 00.653-8.657c1.95.098 13.739.188 15.439.272.18.406.084.498-.132.608a7.358 7.358 0 00-4.195 8.27c.115.8-.001 3.884-.127 6.47a13.56 13.56 0 002.794 9.034 6.822 6.822 0 001.741 1.664 20.46 20.46 0 004.535 2.064 7.24 7.24 0 013.327 1.908c2.366 2.498 5.232 2.927 8.41 1.887a5.977 5.977 0 013.512-.52c3.33 1.089 5.683-.505 7.764-2.84a9.424 9.424 0 00.82-1.384c.124-.23.247-.46.354-.7.182-.345.375-.69.54-1.042a28.604 28.604 0 013.826-7.377c1.044-1.45 2.056-3.198 1.686-4.899-1.028-4.733-1.86-9.65-3.703-14.023-1.193-2.826-1.254-4.447.518-6.537a17.426 17.426 0 001.275-1.826l.176-.277a300.921 300.921 0 0120.487-28.262c6.294-7.75 13.122-15.017 19.81-22.411a107.674 107.674 0 0114.362-13.273c1.616-1.238 2.574-1.126 3.28.88a72.293 72.293 0 002.809 7.01c.94 1.983 1.111 3.462-1.247 4.475a2.527 2.527 0 00-1.65 2.104c.928 2.98.664 6.377 3.09 8.836a2.493 2.493 0 001.596-.403c3.582-1.88 3.582-1.88 5.38 1.899.16.336.323.672.47 1.013a188.762 188.762 0 0020.399 35.01c2.344 3.254 4.103 6.189 3.71 10.58-.506 5.72 4.804 10.35 10.383 9.977 5.83-.39 10.402-5.538 9.861-11.108zm-202.985 7.584c-2.587-.297-5.172-.585-7.758-.888-.655-.078-1.375-.137-1.195-1.112.344-1.882-.208-3.694-.519-5.875 3.146.257 6.187-.05 9.19.683-.037 2.403.613 4.778.285 7.192zm31.511 3.918c-1.05-2.66-.383-5.394-.341-8.102a12.119 12.119 0 01.16-1.344v-.006c3.147-.244 6.281.143 9.426.202 1.34.025 2.042.495 1.871 2.008a110.26 110.26 0 00-.529 6.929c-.062 1.232-.56 1.574-1.759 1.403-2.935-.42-5.884-.734-8.828-1.09zm27.747 6.764a2.623 2.623 0 01-1.638-4.142 10.174 10.174 0 001.585-3.493c.383-2.137 1.658-3.293 3.201-3.276 1.602.016 2.893 1.52 3.148 3.68.034.271.006.554.006 1.271a7.573 7.573 0 01-2.647 5.176 3.863 3.863 0 01-3.655.784zm8.509 10.265a6.259 6.259 0 01-5.972-2.667 2.637 2.637 0 01-.45-2.38 18.777 18.777 0 013.862-5.669c1.168-1.053 2.599-.81 3.879-.008 2.061 1.297 2.84 3.324 3.108 5.682.062 1.925-2.215 4.546-4.427 5.042z" fill="#3d301e"/><path d="M229.212 202.506l-2.875.725a.81.81 0 01-1.064-.083c.003-1.576-1.038-2.913-1.185-4.818a10.723 10.723 0 015.124 4.176z" fill="#433422"/><path d="M223.576 204.196a14.689 14.689 0 00-4.807 1.095c-1.214.423-1.828.08-2.149-1.231a30.783 30.783 0 00-1.598-4.672c-.309-.727.01-1.226.182-1.817.64-.012 1.286.024 1.92-.048a3.479 3.479 0 013.598 1.982c.936 1.573 1.901 3.128 2.854 4.69z" fill="#403220"/><path d="M112.162 192.495c-.443-5.14.323-10.223.753-15.317.635-7.511 1.439-15.008 2.063-22.52.87-10.481 1.536-20.979 4.464-31.17 2.284-7.947 6.36-14.632 13.143-19.535 2.444-1.766 5.268-2.741 7.967-3.982 5.79-2.593 11.425-1.281 16.568 1.46 7.601 4.05 13.267 10.046 15.695 18.615.645 2.445 1.662 4.78 2.15 7.273a57.648 57.648 0 011.848 14.88c-.082 2.797-.007 5.593-.04 8.387-.477 2.864-.172 5.872-1.545 8.577a1.197 1.197 0 01-.774.41 2.627 2.627 0 01-1.183-1.261 38.213 38.213 0 01-2.488-5.437c-1.128-3.243-.18-6.66-.854-9.938-1.037-6.493-1.534-13.077-3.73-19.365-2.297-6.575-6.75-11.17-12.667-14.535a7.729 7.729 0 00-3.998-.933c-3.706-.227-7.289.129-10.508 2.206a12.978 12.978 0 00-2.994 1.864 23.354 23.354 0 00-5.414 6.909 17.106 17.106 0 00-.705 2.042c-3.382 9.228-4.152 18.878-4.602 28.57-.625 13.472-.59 26.993-3.037 40.327a8.812 8.812 0 01-.945 3.478 14.97 14.97 0 01-9.167-1.005z" fill="#8f4a21"/><path d="M237.141 190.857c-.712.758-1.774.26-2.656.748a43.426 43.426 0 015.248 7.043c.425.796 1.058.54 1.63.685-.055 2.008 1.157 3.938.372 5.994-1.924 1.373-2.991.589-3.697-1.393a21.738 21.738 0 00-5.014-8.563 23.34 23.34 0 014.963 8.52c.42 1.12.443 2.107-.762 2.548-1.353.494-1.298-.782-1.713-1.567-1.488-2.811-2.795-5.769-5.364-7.822 2.593 2.09 3.929 5.079 5.368 7.955.633 1.264-.354 2.274-1.137 3.207-1.324.327-1.744-.769-2.28-1.546a22.751 22.751 0 00-3.217-3.724 28.057 28.057 0 00-3.654-3.395c.108 1.329.844 2.405.54 3.628a4.134 4.134 0 01-1.597 2.32c-.665.042-.961-.428-1.259-.898-.58-1.046-1.265-2.038-1.802-3.106-1.266-2.514-3.192-3.727-6.049-3.236a7.427 7.427 0 01-4.838-1.075c-4.52-3.37-9.914-4.772-15.091-6.51a94.522 94.522 0 01-18.063-8.796c-2.073-1.847-4.628-2.978-6.863-4.586a41.824 41.824 0 01-4.66-3.441c-.909-.759-2.086-1.3-2.202-2.704.66-2.283 2.579-3.329 4.464-4.272a19.993 19.993 0 006.96-5.382c1.62-.75 2.548.396 3.57 1.294.292.263.58.531.887.777 2.706 1.546 5.014 3.664 7.65 5.31q.667.388 1.341.765c2.792 1.399 4.835 3.887 7.655 5.247 7.316 4.975 14.953 9.422 22.676 13.72a13.779 13.779 0 009.503 1.145 9.885 9.885 0 014.798.71c1.408.665 2.88.1 4.293.4z" fill="#d19e8a"/><path d="M186.68 169.473l-7.878-5.525a113.272 113.272 0 01-2.76-21.886c.083-5.108-.947-10.084-1.772-15.084-.4-3.856-1.148-7.657-1.32-11.558-.21-4.714-3.228-7.993-6.745-10.721-4.834-3.75-9.766-7.373-14.687-11.01-.07-.125-.138-.25-.205-.377a15.206 15.206 0 00.62-4.624c-.159-1.454.946-2.335 1.366-3.517 1.373 1.06 1.78 3.175 3.83 3.497 2.39 2.08 5.184 3.61 7.608 5.648a26.123 26.123 0 017.038 9.9 2.518 2.518 0 01.526 1.253c-.105 1.797.605.308.949.249 2.388-1.648 1.19-4.054 1.311-6.18.14-.409.346-.717.853-.58.556.309 1.124.597 1.665.928a2.87 2.87 0 011.442 3.49 16.365 16.365 0 00-.934 4.561c-1.113.5-1.208 1.821-2.313 2.733 1.145-.877 1.245-2.213 2.359-2.703 2.932 1.758 4.012 4.757 5.169 7.707 1.146 2.922.977 6.056 1.438 9.087 1.091 7.185 2.458 14.32 3.742 21.47.33 1.833.66 3.669.898 5.515a21.669 21.669 0 004.625 11.51c-1.754 2.643-4.625 4.061-6.824 6.217z" fill="#cb9b56"/><path d="M124.468 248.46l-.652.165c-3.514-.443-7.06-.198-10.589-.585-5.684-.624-8.291-3.338-8.323-9.124-.022-3.93.875-7.762 1.28-11.646.92-8.824 3.397-17.337 5.127-25.998.253-1.265.053-2.628.77-3.798.144.031.287.062.43.09 3.048.672 6.129.216 9.196.265 1.646.752 1.293 2.452 1.728 3.757.428 1.286.791 2.601 1.14 3.914a20.79 20.79 0 002.747 5.289 4.11 4.11 0 01.972 2.755c-.577 2.455-1.733 4.723-2.307 7.182-.399 1.706-1.49 2.386-3.28 2.32-1.46-.054-2.968-.334-4.413.215-3.177.63-4.193 1.705-4.446 4.757a14.78 14.78 0 00-.01 1.958c.186 3.692 1.895 5.419 5.568 5.608 1.117.057 2.237.04 3.356.058a2.044 2.044 0 01.644 1.196 48.45 48.45 0 001.377 10.88c.067.27-.167.511-.315.742z" fill="#8f4a21"/><path d="M168.71 46.316c5.98.136 10.573 3.002 14.365 7.373a16.471 16.471 0 012.87 4.398c-5.52 2.275-11.421 3.086-17.17 4.484-.871.212-1.886.105-2.527 1.047-.266.166.375.184.07-.03 6.45-2.313 13.27-3.188 19.832-5.065 2.641-.452 5.276-.948 7.925-1.343a10.266 10.266 0 015.495.179c.602.242 1.29.506 1.349 1.25.061.784-.684 1.058-1.225 1.347a11.597 11.597 0 01-3.19.925c-3.266.681-6.551 1.284-9.743 2.284-1.213 1.33-2.93 1.406-4.512 1.734-2.24.463-4.413 1.16-6.62 1.733-5.634 1.412-11.276 2.793-16.9 4.241-3.654.875-7.314 1.727-10.935 2.736a6.73 6.73 0 01-1.363-4.375c3.13-2.251 7.01-2.407 10.416-3.901-2.283.879-4.667 1.42-6.994 2.177-1.102.357-2.281.977-3.451.09-.333-8.068 5.375-17.723 13.916-20.192a3.232 3.232 0 001.445.73c1.653.317 1.1-.564.69-1.344a5.767 5.767 0 013.478-.483c3.323 1.091 6.808 1.716 10.086 3.533-1.9-1.208-3.913-1.6-5.783-2.352-.582-.234-1.61-.028-1.525-1.176z" fill="#cb9a56"/><path d="M196.285 368.398a11.054 11.054 0 007.675-3.423c1.422-3.268 2.953-7.496 4.72-9.726 2.405-3.035 2.532-6.305.78-9.669a8.998 8.998 0 01-1.299-5.28 6.256 6.256 0 00-2.404-5.7c-1.11-.852-.996-1.546-.195-2.506 1.242-1.487 1.949-3.377 3.452-4.678 1.459.029 1.664 1.288 2.1 2.237 3.768 8.182 7.024 16.58 10.387 24.93 1.834 4.55 3.255 9.256 7.842 11.952a112.544 112.544 0 01-19.557 14.489c-1.378.809-2.94 1.671-4.694.789-1.911-1.08-2.989-2.936-4.183-4.642a50.298 50.298 0 01-4.624-8.773z" fill="#cb9b56"/><path d="M175.308 65.96a103.193 103.193 0 0111.453-2.795c.485 1.266 1.413 2.427.935 3.923-1.448.348-2.913-.093-4.365.093-1.845.235-3.628.62-4.805 2.25-1 1.384.128 1.188.939 1.208a1.403 1.403 0 01.871.739c.307.56.224 1.288.682 1.769a1.69 1.69 0 001.541.39c1.008-.17.257-.836.237-1.244a2.993 2.993 0 01.9-2.216 5.038 5.038 0 011.097-1.067c1.058-.314 1.718-1.4 2.888-1.501a6.29 6.29 0 01.057 1.373 4.583 4.583 0 002.09 5.025 5.294 5.294 0 011.002.958c1.259 1.442 1.092 2.461-.34 3.772-.706.646-2.143.418-2.188 1.826a1.716 1.716 0 01-1.518.454 7.17 7.17 0 00-5.84 2.532c-.926.979-1.757 2.157-3.227 2.418-.076.078-.289-.195-.287.117a12.116 12.116 0 003.878.021c1.96.367 3.86 1.008 5.855 1.192a3.818 3.818 0 01-.087 2.198 6.068 6.068 0 00-.052 4.322c.805 2.806-.034 3.713-3.002 3.649-1.564-.035-3.106-.551-4.686-.209a29.515 29.515 0 01-6.326-4.062c-1.422-1.116-2.098-.719-2.417.972a11.283 11.283 0 00.53 6.577c.5 1.22 1.45 2.503.39 3.922a1.71 1.71 0 01-.957-.95c-1.687-5.229-5.662-8.463-9.881-11.537-1.29-.94-3.074-1.361-3.681-3.123a14.838 14.838 0 013.05-8.015c1.929-.448 3.169.45 4.038 2.074.991 1.852 1.708 3.864 2.899 5.112.51.617.645-.042.447.274-.043.068-.136.037-.241-.117a6.779 6.779 0 01-.513-.65c-1.75-3.436-3.689-6.718-7.043-8.888-1.611-2.495-2.577-5.049-.721-7.858 3.517-1.152 4.697-.68 6.502 2.522.425.754.563 2.024 1.745 1.827 1.052-.176 1.196-1.337 1.336-2.221a6.35 6.35 0 013.903-5 7.139 7.139 0 002.912-2.056z" fill="#d19e8a"/><path d="M205.092 381.813a14.633 14.633 0 007.259-3.268 17.332 17.332 0 013.303-2.054c3.923-2.047 6.942-5.245 10.281-8.031a7.993 7.993 0 013.352-1.876c1.59-1.147 3.423-.658 5.156-.704 2.33-.062 11.188-3.215 13.517-3.259 1.498.172 1.394 1.79 1.905 2.856.683 1.425-.841 3.207 0 4.55.809 1.656 3.869 2.086 3.7 4.132-.327.743-6.613 4.565-7.296 4.874-10.04 4.537-20.278 8.462-31.172 10.492-2.993.558-5.936-.05-8.896.16-1.132-2.517-.928-5.222-1.109-7.872zM144.646 378.722c3.432 2.057 17.834 7.21 21.521 8.618.43.164.88.273 1.318.414 3.964 1.278 4.616 2.194 4.548 6.386a5.909 5.909 0 01-3.808 2.083 57.566 57.566 0 01-20.13 1.19c-1.84-.236-3.712.001-5.521-.464-1.688-.8-10.719-.289-10.033-.947 1.723-1.656 3.155-7.929 4.995-9.45 1.775-1.464 4.67-2.732 6.21-4.41.692-.755-.426-3.434.9-3.42z" fill="#8f4a21"/><path d="M160.316 81.013c-1.399 2.526-1.761 5.485-3.323 7.943-2.73-.467-3.01-.755-3.696-3.789-.3-.86-.358-1.983-.948-2.545-2.615-2.486-2.941-6.062-4.554-9.011a1.637 1.637 0 011.361-1.229c3.166-.581 6.211-1.72 9.433-2.034.662-.127.877.146.693.776-1.417 2.784-.367 5.241 1.016 7.654a1.872 1.872 0 01.018 2.235z" fill="#424141"/><path d="M172.114 120.18c-3.614-10.612-10.687-17.546-21.653-20.312a19.359 19.359 0 00-7.992-.073 5.471 5.471 0 01-1.917.176c2.193-2.35 5.165-3.487 7.863-5.051.955-.554 1.93-1.073 2.898-1.608l.183.144c5.463 3.99 10.924 7.981 16.198 12.222a14.039 14.039 0 015.48 12.682c-.056.743.27 1.787-1.06 1.82z" fill="#cb9b56"/><path d="M253.571 373.37c.711.894 2.241 3.06 2.951 3.954-2.508.721-11.441 4.677-13.785 5.765a110.908 110.908 0 01-28.11 8.592 21.058 21.058 0 01-5.278.218c-1.43-.116-2.747-.556-3.148-2.214.24-.458-.273-1.658.896-1.208 3.42 1.316 6.798.582 10.126-.175a98.024 98.024 0 0016.286-4.725c4.775-2.002 15.535-7.638 20.062-10.207z" fill="#6a3313"/><path d="M200.75 168.868a107.47 107.47 0 0010.184 9.376c2.649 2.164 5.348 4.267 8.008 6.417 2.17 1.756 4.762 2.82 7.068 4.352-1.48 1.415-3.145.767-4.728.341-3.66-.984-6.74-3.185-9.933-5.08-4.488-2.664-8.838-5.567-13.183-8.464a4.18 4.18 0 01-1.558-1.572c.32-2.607 2.406-3.853 4.143-5.37z" fill="#d19e8a"/><path d="M136.906 399.538a36.095 36.095 0 014.906-3.16c4.19-.33 8.312.66 12.503.587 6.055-.106 12.002-.687 17.718-2.824-.18 3.442-1.356 4.717-4.647 5.032a5.548 5.548 0 01-.559.026c-9.514-.054-19.025.13-28.533.467a10.627 10.627 0 01-1.388-.128z" fill="#6a3313"/><path d="M200.75 168.868c-.79 2.136-2.855 3.279-4.005 5.134.137.91-.245 1.296-1.157 1.146a2.436 2.436 0 01-2.004-.672c-1.657-1.865-3.864-3.001-5.844-4.438-.254-2.462 2.19-2.868 3.33-4.252a7.18 7.18 0 012.901-1.944l6.78 5.026z" fill="#cb9b56"/><path d="M171.514 104.566c.034-2.02-1.181-3.661-1.683-5.522-.65-2.412-.072-4.705.542-7.007.213-.795.774-1.17 1.436-.698 2.527 1.801 4.994 3.688 7.478 5.55.053.04.034.177.049.269a7.748 7.748 0 00-3.921 1.8l-.552.575c-.767 2.183-.432 4.64-1.668 6.708-.331.518-.663 1.283-1.144.125a17.126 17.126 0 01-.537-1.8z" fill="#b5816d"/><path d="M195.588 175.148a2.202 2.202 0 001.157-1.146c7.107 4.744 14.22 9.48 21.743 13.55a11.33 11.33 0 007.522 1.462l2.04.733c-1.72 1.669-3.814 1.105-5.787.859a15.41 15.41 0 01-5.888-2.344c-5.797-3.448-11.61-6.87-17.38-10.363-1.242-.752-2.677-1.336-3.407-2.751z" fill="#b6826e"/><path d="M177.166 85.45a3.573 3.573 0 002.655-1.822 7.515 7.515 0 018.481-3.165c1.152 2.084 1.1 2.283-.92 3.512-2.16.692-4.013 2.154-6.311 2.494a4.579 4.579 0 01-4.495-.442c-.114-.51-.007-.794.59-.577z" fill="#444343"/><path d="M112.081 197.474l.102-3.848c3.017-.526 5.993-.056 8.972.375a2.375 2.375 0 01.494 3.681 22.27 22.27 0 01-9.356-.013l-.212-.195z" fill="#8f4b22"/><path d="M179.227 70.82c-.676.24-1.062 1.064-1.912.974-.21-4.329 5.71-7.003 10.381-4.706a3.125 3.125 0 01-.015.42 3.109 3.109 0 01-2.715 1.824 4.654 4.654 0 01-1.866.595 6.047 6.047 0 00-1.816.278 8.482 8.482 0 01-2.057.615z" fill="#474544"/><path d="M186.15 58.523c-1.48 1.697-3.716 1.675-5.603 2.123a131.182 131.182 0 01-14.907 2.914c1.033-1.156 2.272-1.227 3.333-1.511 4.822-1.292 9.729-2.262 14.49-3.789a7.412 7.412 0 012.483-.173.719.719 0 01.204.436z" fill="#ac7b36"/><path d="M181.071 86.47l2.951-1.877a4.114 4.114 0 013.36-.619c-.437 1.05-.096 2.152-.219 3.223a3.646 3.646 0 01-3.828.059 5.73 5.73 0 00-2.264-.787z" fill="#7d5151"/><path d="M146.402 67.6c3.719-.733 7.373-1.73 11.287-2.902-1.719 1.535-7.862 3.942-11.258 4.536a2.734 2.734 0 01-.03-1.635z" fill="#af7e39"/><path d="M193.971 163.842c-1.162 1.86-3.242 2.715-4.699 4.272a8.822 8.822 0 00-1.532 1.924l-1.06-.565c.762-2.423 3.173-3.23 4.77-4.833a12.47 12.47 0 012.055-1.385l.466.587z" fill="#ae7e39"/><path d="M121.125 194.173c-2.1-.003-4.202-.025-6.302-.001a4.884 4.884 0 01-2.64-.546l-.021-1.131a34.77 34.77 0 018.903 1.113.418.418 0 01.14.366q-.03.2-.08.2z" fill="#6e3514"/><path d="M168.71 46.316c1.42.93 3.107 1.165 4.642 1.791a7.13 7.13 0 013.446 2.31c-1.421-.55-2.82-1.174-4.27-1.629-1.679-.526-3.275-1.368-5.095-1.4a1.635 1.635 0 01-1.502-1.076 5.805 5.805 0 012.778.004z" fill="#b88540"/><path d="M162.453 46.794c.644.187 1.68-.116 1.664.974-.015 1.04-.865 1.29-1.767 1.311-1.158.028-1.993-.338-2.032-1.671a3.602 3.602 0 012.135-.614z" fill="#b0803b"/><path d="M130.073 403.075a1.005 1.005 0 011.095-.533 1.088 1.088 0 01-1.095.533zM261.18 392.45a.587.587 0 01.542.467.488.488 0 01-.542-.466z" fill="#4d4437"/><path d="M200.1 297.801q1.656 6.86 3.309 13.72a59.88 59.88 0 002.179 6.87c.23.62.368 1.265 1.188 1.337-2.163 3.253-4.356 6.485-6.472 9.768-.713 1.106-1.228 1.66-2.574.641-2.527-1.913-5.33-1.506-7.931-.17-2.643 1.358-2.675.849-3.682-1.4-2.13-4.763-4.131-9.585-6.128-14.406-4.815-11.625-9.557-23.282-14.439-34.879-.723-1.72-.725-2.807.74-4.113 3.544-3.163 6.65-6.79 10.282-9.87 1.586-.18 1.967 1.2 2.586 2.127 4.444 6.648 7.699 13.91 10.832 21.231.147.341.339.659.475 1a29.951 29.951 0 001.479 3.545 310.04 310.04 0 01-1.863-4.445c-3.221-7.83-6.474-15.638-11.49-22.556a2.12 2.12 0 01-.385-2.576 5.098 5.098 0 013.664-2.256c2.553-.417 5.08-.989 7.618-1.495 2.338 8.39 6.038 16.345 7.973 24.86.901 3.968 2.022 7.892 2.564 11.938-1.622.298-2.55-1.268-4.164-1.501.97 1.767 3.073 1.47 4.24 2.63z" fill="#cb9b56"/><path d="M200.1 297.801q1.656 6.86 3.309 13.72a59.88 59.88 0 002.179 6.87c.23.62.368 1.265 1.188 1.337-2.163 3.253-4.356 6.485-6.472 9.768-.713 1.106-1.228 1.66-2.574.641-2.527-1.913-5.33-1.506-7.931-.17-2.643 1.358-2.675.849-3.682-1.4-2.13-4.763-4.131-9.585-6.128-14.406-4.815-11.625-9.557-23.282-14.439-34.879-.723-1.72-.725-2.807.74-4.113 3.544-3.163 6.65-6.79 10.282-9.87 1.586-.18 1.967 1.2 2.586 2.127 4.444 6.648 7.699 13.91 10.832 21.231.147.341.339.659.475 1a29.951 29.951 0 001.479 3.545 310.04 310.04 0 01-1.863-4.445c-3.221-7.83-6.474-15.638-11.49-22.556a2.12 2.12 0 01-.385-2.576 5.098 5.098 0 013.664-2.256c2.553-.417 5.08-.989 7.618-1.495 2.338 8.39 6.038 16.345 7.973 24.86.901 3.968 2.022 7.892 2.564 11.938-1.622.298-2.55-1.268-4.164-1.501.97 1.767 3.073 1.47 4.24 2.63zM159.182 260.199c-1.145.247-1.373-.585-1.706-1.382-1.287-3.079-2.612-6.142-3.922-9.21-.484-.845.018-1.464.564-1.958 2.507-2.266 3.385-5.305 4.053-8.434a58.416 58.416 0 001.355-10.532 10.233 10.233 0 011.289-4.809c.881-1.408 1.776-2.815.537-4.478-1.038-1.799-.732-3.781-.758-5.711a85.324 85.324 0 01.983-11.326c.11-.305.226-.61.332-.917.844-1.649.613-3.868 2.59-4.925 4.044-.215 7.963.748 11.928 1.28.973 2.169.362 4.384.047 6.538-1.941 13.244-5.64 26.064-9.565 38.82-1.399 4.549-2.99 9.038-4.495 13.553-.558 1.675-1.341 3.08-3.232 3.49z" fill="#cb9b56"/><path d="M162.48 201.995a11.406 11.406 0 00-.443 1.876c-.344 5.17-.784 10.336-.684 15.525a3.773 3.773 0 00-4.156-.43 55.958 55.958 0 01-14.44 3.946c-4.04.406-8.063.903-12.125.376a.941.941 0 01-.006-1.41c-.555.381-.62 1.073-1.123 1.414l-2.787-.013a2.173 2.173 0 01-.41-2.32c.803-2.336 1.133-4.828 2.325-7.033.852-.713 1.564-.04 2.287.268a12.69 12.69 0 0012.679-1.14c3.492-2.303 6.871-4.718 9.313-8.222a4.124 4.124 0 012.051-1.8 33.468 33.468 0 004.61 1.558c-1.204-.732-3.113-.398-3.855-2.14a2.109 2.109 0 011.88-2.02 9.401 9.401 0 014.883 1.565z" fill="#8f4a21"/><path d="M159.182 260.199a5.53 5.53 0 002.341-3.286c4.032-11.756 7.758-23.59 10.704-35.683a269.804 269.804 0 003.656-17.642c.315-1.812.026-3.714.67-5.499a.46.46 0 01.634-.113 79.738 79.738 0 012.265 13.43 13.26 13.26 0 01-.512 5.763c-.944 3.983-1.852 7.98-3.014 11.901a4.857 4.857 0 001.13 5.11 20.653 20.653 0 013.928 6.059c.272.667.725 1.553-.1 2.006-.765.42-1.355-.346-1.834-.9-1.216-1.406-2.187-3.01-3.505-4.337-.864-.869-1.41-.985-1.97.38-1.463 3.575-1.402 4.369 1.631 6.644a25.653 25.653 0 015.978 6.564 27.798 27.798 0 003.286 4.122c-.835.743-1.88.44-2.839.568a89.382 89.382 0 00-8.076-9.154c-1.547-1.485-2.122-1.163-2.764.717-1.373 4.024-2.663 8.096-4.86 11.787a38.57 38.57 0 01-6.749 1.563z" fill="#a87833"/><path d="M184.47 254.718a2.36 2.36 0 01-2.238-1.337c-.728-1.186-1.556-2.31-2.32-3.476a27.383 27.383 0 00-7.187-6.908 1.71 1.71 0 01-.775-2.299c.632-1.912 1.08-3.886 1.67-6.08 3.318 1.782 4.58 5.17 7.142 7.298a14.768 14.768 0 00-3.563-6.438c-2.102-2.143-2.914-4.204-1.845-7.339 1.551-4.546 2.39-9.333 3.611-13.996.24-.911.294-1.831.487-2.737.714 4 1.332 8.02 2.163 11.996a7985.712 7985.712 0 006.348 29.973c.227 1.064-1.796 1.11-3.493 1.343z" fill="#cb9b56"/><path d="M146.884 250.092q-9.398-.749-18.797-1.494c-.832-.065-1.669-.08-2.503-.117a14.933 14.933 0 01-1.119-12.856c3.075-.356 6.065.537 9.112.628a2.394 2.394 0 012.339 1.948c.873 2.714 2.552 4.506 5.715 4.173a1.54 1.54 0 011.56.926c1.31 2.221 2.96 4.257 3.693 6.792zM160.815 223.874c-.645 5.415-.694 10.897-2.044 16.232-.857 3.387-1.846 6.63-4.933 8.736-.183.125-.193.504-.284.765-1.577-2.917-2.56-6.127-4.417-8.907a2.542 2.542 0 01-.448-2.375c1.063-2.713-.175-4.627-2.219-6.311 1.483-2.234 3.825-2.929 6.061-3.752a25.708 25.708 0 008.284-4.388z" fill="#8f4a21"/><path d="M165.931 258.636c-.077-1.867 1.088-3.332 1.655-4.987 1.142-3.334 2.444-6.613 3.677-9.905.833-.223 1.21.418 1.642.856 2.546 2.586 5.313 4.963 7.435 7.95a5.694 5.694 0 011.291 2.736c-5.175 1.39-10.443 2.343-15.7 3.35z" fill="#ca9a55"/><path d="M199.318 349.767c3.022.044 4.451 1.85 3.432 4.267a33.622 33.622 0 00-1.479 5.06 4.264 4.264 0 01-3.49 3.517c-1.549.138-3.143-1.106-3.91-3.05a7.063 7.063 0 013.908-9.484 6.596 6.596 0 011.54-.31zM200.602 337.01a2.812 2.812 0 01.891.214c1.693.78 3.997 5.62 3.58 7.443-.727 3.189-3.572 4.397-6.455 2.742-3.135-1.8-3.456-7.552-.531-9.67a3.53 3.53 0 012.515-.73z" fill="#ca9a56"/><path d="M188.333 333.969a3.91 3.91 0 002.89-.514 2.93 2.93 0 011.852-.483 2.267 2.267 0 012.255 3 11.488 11.488 0 01-3.186 5.136c-1.418 1.437-3.167 1.282-5.522-.195-.373-.505-.527-1.132-.916-1.626a1.828 1.828 0 01-.162-.486c-.052-.338.083-5.11 2.789-4.832z" fill="#ca9b56"/><path d="M190.005 289.949c-1.857-3.965-3.608-7.983-5.597-11.88-2.273-4.454-4.4-9.02-7.836-12.77a3.994 3.994 0 011.635-1.674 6.435 6.435 0 001.477 2.962 88.49 88.49 0 0110.881 22.239c.337.636.48 1.175-.56 1.123z" fill="#a97a35"/><path d="M188.69 346.921c.179-1.883 1.453-3.282 2.851-3.131 1.59.171 3.546 2.393 3.402 3.86a3.118 3.118 0 01-3.317 2.663 3.261 3.261 0 01-2.936-3.392z" fill="#c79855"/><path d="M128.912 213.842a24.875 24.875 0 01-1.412 5.648 8.545 8.545 0 00-.785 3.79l-8.421-.02c1.13-.973 2.481-.45 3.728-.5 2.572-.1 2.848-.13 3.383-2.65a58.28 58.28 0 012.453-7.03.853.853 0 011.054.762z" fill="#6c3414"/><path d="M163.108 265.403l5.449-1.152a13.351 13.351 0 01-2.947 3.377c-1.01 1.064-2.084 2.066-3.113 3.079a2.708 2.708 0 01-1.139-1.967 2.376 2.376 0 01.644-2.86l.005-.003c.29-.334.77-.233 1.1-.474z" fill="#c49653"/><path d="M124.465 235.625c.017 4.316-.393 8.67 1.119 12.856l-1.116-.02a30.485 30.485 0 01-1.706-12.82q.852-.007 1.703-.016z" fill="#6e3514"/><path d="M206.594 364.585a22.693 22.693 0 0012.202-3.159c-.644 1.528-.851 1.829-2.386 2.384a55.762 55.762 0 01-7.745 2.27c-1.027.211-1.8-.358-2.71-.413a1.327 1.327 0 01.639-1.082z" fill="#ae7d39"/><path d="M129.503 223.292a8.372 8.372 0 01.976-2.79.822.822 0 01.675-.319c.453.081.456.447.314.826a6.827 6.827 0 00-.836 2.28q-.565 0-1.129.003z" fill="#6f3514"/><path d="M162.002 265.88l-.643 2.86c-.454-.375-.466-.953-.674-1.443-.626-1.474.312-1.472 1.317-1.416zM163.108 265.403a1.157 1.157 0 01-1.102.474.942.942 0 011.102-.474z" fill="#9d7333"/><path d="M128.912 213.842l-1.054-.762c-1.301-2.383-3.034-4.527-3.933-7.13.602-4.97 1.17-9.943 1.901-14.895.163-1.102.18-2.253 1.054-3.11a2.121 2.121 0 011.814-.535c2.635.627 3.206-.95 3.388-3.026a7.969 7.969 0 01.32-1.92c.475-1.37.054-2.07-1.406-2.335-1.145-.209-2.464-.25-3.075-1.584-.342-4.126.677-8.158.754-12.263.165-8.868-1.015-17.7-.596-26.566.277-5.865.56-11.732 1.416-17.548.207-1.203.884-2.329.621-3.616 1.527-2.517 3.078-5.015 5.512-6.798.292-.018.706.132.613.35a21.065 21.065 0 00-1.458 10.438c-.015-4.198-.577-9.042 3.637-12.46 1.956-1.948 4.497-2.448 7.075-2.729a35.161 35.161 0 014.162.016c2.677.927 4.488 2.919 6.126 5.08a41.178 41.178 0 015.742 11.117 9.31 9.31 0 01.39 4.924c-.632 3.552-.518 7.208-1.372 10.74.708-2.856.713-5.805 1.183-8.692.109-.667-.42-1.736.595-1.882.959-.138 1.316.864 1.611 1.651.883 2.35 1.642 4.744 2.559 7.086 1.118 2.856 2.161 5.743 3.246 8.614 2.083 5.51.903 8.915-4.066 12.137-2.735 1.772-4.271 4.914-7.247 6.425-1.466.394-2.235-.708-3.025-1.547a78.73 78.73 0 01-13.785-19.388c-1.434-2.936-4.139-5.213-5.025-8.546a6.098 6.098 0 01-.348-1.329c-.14-1.077-.245-2.162-.38-2.688.396 1.052.028 2.823.848 4.348 5.826 13.448 10.006 27.573 16.784 40.629.86 1.657 1.892 3.19 2.885 4.758.532.84 1.397 1.54 1.259 2.697-1.263 1.064-2.493.164-3.7-.122-1.663-.394-2.723.1-3.217 1.763-.186.625-.417 1.238-.601 1.864-1.398 4.764-1.375 4.69 3.247 6.111 1.706.525 2.603.187 3.203-1.493a35.115 35.115 0 012.637-5.864 3.544 3.544 0 01.587-.597 2.3 2.3 0 01.766-.372 1.735 1.735 0 011.608.383c.569.99.169 1.898-.23 2.807a31.908 31.908 0 00-1.548 3.56c-.483 1.29-1.805 2.41-.789 4.002.401 1.576-.219 2.938-.883 4.294a3.245 3.245 0 01-1.285 1.03 3.897 3.897 0 00-1.597 1.704l-.055.208a.859.859 0 01-.311.296l-.214.033a40.348 40.348 0 01-11.488 10.693c-4.988 3.047-9.895 3.263-14.855.039z" fill="#cb9b56"/><path d="M174.92 161.727c-1.14 2.96-3.827 4.179-6.361 5.483a12.328 12.328 0 00-4.894 3.996c-2.62-1.119-4.145-3.29-5.464-5.665a1.573 1.573 0 01.66-1.47c3.094-1.76 4.517-5.405 7.937-6.861a6.91 6.91 0 003.01-3.223c.363-.665.759-1.379 1.702-.707.754 1.664 1.874 3.162 2.27 4.989.297.334.177.868.56 1.16l-.007-.022a2.416 2.416 0 01.588 2.32zM153.617 108.398a24.702 24.702 0 0112.86 13.889 54.868 54.868 0 013.404 15.376 33.41 33.41 0 01.554 4.952 4.926 4.926 0 01-.094 3.494c-1.386-.53-1.43-1.738-1.801-2.728q-4.084-10.907-8.067-21.851A34.875 34.875 0 00154 110.576c-.944-1.089-.897-1.13-.382-2.178z" fill="#cb9b56"/><path d="M153.617 108.398c-.56 1.394.828 1.987 1.4 2.634 3.528 3.999 5.467 8.788 7.253 13.673 2.417 6.61 4.783 13.24 7.183 19.858a13.058 13.058 0 00.799 1.411l.183-3.36c.81.861.502 1.94.52 2.929.05 2.59-.121 5.193.555 7.737-.954-.026-1.2.748-1.536 1.39a6 6 0 01-2.841 2.968c-3.636 1.441-5.191 5.199-8.314 7.172-.168.106-.143.518-.207.787-.92-.029-.92-.497-.547-1.144a10.846 10.846 0 012.118-2.182c2.524-2.565 5.39-4.737 8.023-7.162a6.047 6.047 0 001.555-6.877c-2.263-6.197-4.772-12.305-6.787-18.594-.087-.27-.254-.49-.823-.463a44.346 44.346 0 01-1.613 10.677 26.358 26.358 0 01.525-7.628c.972-4.69-.133-8.792-2.035-12.934a32.17 32.17 0 00-9.37-11.921 5.968 5.968 0 013.959 1.029z" fill="#ac7c37"/><path d="M172.114 120.18a12.518 12.518 0 00-1.434-10.558c-1.883-3.216-5.16-4.99-7.975-7.21-3.12-2.463-6.392-4.733-9.574-7.118a3.874 3.874 0 01-1.636-1.838c1.895-.02 2.917 1.548 4.239 2.472 3.797 2.657 7.493 5.465 11.145 8.321a19.716 19.716 0 015.416 6.305 8.794 8.794 0 011.372 3.917c-.012 4.184 1.013 8.311.604 12.506l-2.157-6.797z" fill="#ae7d38"/><path d="M174.92 161.727c-.848-.608-.55-1.506-.587-2.32a3.245 3.245 0 00.978-2.526c.043-1.97.6-3.858.716-5.806.091-.002.255-.03.264-.004a28.268 28.268 0 011.947 12.288c-1.134-.487-1.75-2.028-3.317-1.632z" fill="#c59551"/><path d="M178.238 163.359a59.852 59.852 0 00-2.211-12.284l.015-9.014a2.027 2.027 0 01.494 1.81c-.286 3.85.752 7.52 1.469 11.238.47 2.443.88 4.899 1.298 7.352a1.359 1.359 0 01-.5 1.487l-.565-.59z" fill="#ad7d39"/><path d="M138.42 110.081c-3.433 3.879-3.585 8.6-3.216 14.068a15.461 15.461 0 01.056-10.388c.226-.635 1.025-1.198.368-2.006a4.113 4.113 0 012.792-1.674z" fill="#b0803b"/><path d="M174.34 159.43a1.09 1.09 0 01-.56-1.16 1.269 1.269 0 01.56 1.16z" fill="#c59551"/><path d="M158.065 164.453a1.212 1.212 0 00.547 1.144l5.053 5.609c.392 1.105 1.61 1.375 2.252 2.229-.695 4.141-1.398 8.28-3.958 11.796l-1.76-.122c-1.095-.129-2.307-.043-2.682-1.477-4.55-5.762-7.156-12.568-10.123-19.156-3.396-7.54-5.948-15.423-8.882-23.15-.756-1.993-1.967-3.811-2.295-5.967-.172-.68-.83-1.525.564-1.678a18.599 18.599 0 004.933 8.541c.263.261.697.529.723.823.33 3.653 3.072 5.98 4.875 8.79a57.657 57.657 0 009.24 11.419 4.45 4.45 0 001.513 1.199z" fill="#a87832"/><path d="M161.959 185.231c.75-2.375 1.584-4.727 2.222-7.132a21.84 21.84 0 011.736-4.664l4.498 3.347c.774 2.223-.559 4.11-1.067 6.103a11.838 11.838 0 00-.52 4.604c-1.719 1.39-2.132 3.432-2.698 5.403-.408 1.417-.538 2.976-1.896 3.94l-1.6 4.69a11.455 11.455 0 01-4.495-1.725c.465-1.404 1.2-2.745 1.01-4.303a6.033 6.033 0 01.899-3.643c.583-1.274.837-2.66 1.344-3.96.09-.908.754-1.693.567-2.66z" fill="#904b21"/><path d="M168.735 187.342a1.732 1.732 0 01-.843-2.3c.967-2.708 1.697-5.501 2.523-8.26 2.28 1.452 4.846 2.48 6.729 4.523-1.006 2.114-.149 4.433-.725 6.594a7.014 7.014 0 01-7.684-.557z" fill="#a87832"/><path d="M241.492 205.374c.173 1.397.193 2.682-1.815 2.489-.44 1.392-1.585 1.341-2.763 1.628a2.27 2.27 0 01-2.735-1.21.832.832 0 00.027-.277c-.308-1.196 1.596-1.717.935-2.989-.511-.985-1.158-1.901-1.654-2.894a13.408 13.408 0 00-5.466-5.845c2.316.202 3.07.543 3.979 1.816a30.632 30.632 0 013.863 6.747c.22.571.214 1.512 1.114 1.23 1.015-.316.927-1.11.56-2.036-1.337-3.373-2.733-6.688-5.685-9.04-.036-.028.019-.172.066-.518 1.9.597 2.967 2.095 3.914 3.532a27.397 27.397 0 012.303 4.755c1.014 2.48.965 2.5 3.357 2.612z" fill="#b88571"/><path d="M228.942 192.959c.014.521-.388.584-.745.597-.25.01-.678-.07-.728-.214-.147-.42.211-.649.563-.745a.696.696 0 01.91.362z" fill="#c08c78"/><path d="M224.33 194.69c-.216.382-.455.774-.985.763a.63.63 0 01-.107-.466.969.969 0 01.819-.65c.215-.014.31.133.274.353z" fill="#bd8773"/><path d="M232.272 192.448l-.409-.26c.148-.073.298-.207.442-.2.14.006.274.156.411.243l-.444.217z" fill="#bd8470"/><path d="M181.735 147.405c.163-6.72 1.5-13.003.286-19.837 1.258 1.545 1.297 1.546 1.24 6.619-.024 2.127.257 4.264-.3 6.387-.56 2.13.128 4.473-1.226 6.831z" fill="#b2823c"/><path d="M173.195 106.24a16.573 16.573 0 01.551-5.233 1.943 1.943 0 011.117-1.474c.895 1.45.605 3.055.51 4.597a2.192 2.192 0 01-2.178 2.11z" fill="#aa7a37"/><path d="M177.633 107.967a9.957 9.957 0 01-2.427 3.39 7.52 7.52 0 011.617-3.604c.072-.088.501.116.765.184z" fill="#b07f39"/><path d="M183.54 160.383c-.496-1.516.246-2.305.501-3.656a3.478 3.478 0 01-.501 3.656z" fill="#b98943"/><path d="M121.656 197.54a.318.318 0 01.102.41 1.42 1.42 0 01-1.156.672q-3.626.024-7.253.022c-.643 0-1.071-.254-1.057-.976 3.118-.316 6.243-.062 9.364-.127z" fill="#6d3212"/><path d="M159.283 71.124l-.693-.776c4.755-1.686 9.736-2.52 14.58-3.871.706-.197 1.425-.346 2.138-.517.066 1.692-1.277 2.2-2.448 2.668-2.31.922-3.76 2.364-3.702 4.991a1.226 1.226 0 01-.117.543c-.465.957-.5 2.335-1.983 2.374-1.35.035-1.552-1.11-1.883-2.076-.06-.176-.15-.34-.227-.51-1.406-3.14-2.073-3.473-5.665-2.826z" fill="#444342"/><path d="M159.046 49.124c-3.601 3.945-7.437 7.674-10.02 12.938.213-3.87 6.145-11.525 10.02-12.938z" fill="#ae7d37"/><path d="M175.136 57.652c-1.341-1.617-2.89-3.003-4.311-4.512a20.675 20.675 0 00-4.546-3.6c-.45-.268-1.06-.635-.543-1.28.34-.424.855-.203 1.257.045a22.656 22.656 0 016.05 5.647c.84 1.097 2.107 2.048 2.093 3.7z" fill="#af7e38"/><path d="M161.423 58.052a15.587 15.587 0 011.653-6.999c.155 2.425-1.215 4.593-1.1 6.998a.336.336 0 01-.553 0z" fill="#b1803b"/><path d="M167.803 54.801a9.69 9.69 0 01-2.245-4.039c2.02.916 1.911 2.597 2.245 4.04z" fill="#b2823d"/><path d="M158.148 52.943a10.416 10.416 0 01.571-1.188c.278-.435.653-1.12 1.213-.644.592.503-.137.934-.453 1.306a8.79 8.79 0 01-.98.87z" fill="#b5853f"/><path d="M161.423 58.052h.552l-.754 2.892c-.302-1.026-.666-2.03.202-2.892z" fill="#b2823d"/><path d="M218.57 363.894c-1.138 3.492-3.273 5.743-6.328 6.443a59.918 59.918 0 006.323-6.449zM218.565 363.888l.231-.228c-.012.049-.008.115-.039.143a.75.75 0 01-.187.09z" fill="#b2803b"/><path d="M160.316 81.013l-.018-2.235c.259.263.473.676.782.765 2.915.837 3.526 3.54 4.755 5.753.88 1.584 1.823 3.132 2.591 4.794a12.172 12.172 0 01-3.855-5.097c-.832-2.01-2.027-3.517-4.255-3.98z" fill="#b98572"/><path d="M184.316 70.474c-1.53 1.888-1.524 1.934.61 3.259-1.388 1.14-2.837.73-4.171.253-1.108-.395-.942-1.453-.743-2.397.988-2.097 2.48-2.25 4.304-1.115z" fill="#5c524f"/><path d="M165.434 79.472a11.34 11.34 0 01-4.288-3.675.993.993 0 01.368-1.622c.724-.29.9.419 1.025.934.384 1.59 2.222 2.16 2.895 4.363z" fill="#b98571"/><path d="M174.489 75.631a1.974 1.974 0 011.18-1.684c.52-.288 1.288-1.037 1.651-.394.242.429-.165 1.34.01 2.098.064.275-.71.692-1.118.393a2.061 2.061 0 00-1.723-.413z" fill="#bf8a76"/><path d="M184.316 70.474a4.086 4.086 0 00-4.304 1.115l-.784-.769a2.845 2.845 0 011.82-1.094c.535-.335 1.228-.016 1.746-.42l2.172.026-.65 1.142z" fill="#b28d7c"/><path d="M186.093 77.98c-.763-.765-.71-1.529-.07-2.658.646 1.13-.05 1.893.07 2.657z" fill="#ba8672"/><path d="M177.166 85.45l-.59.577c-.477-.103-1.04-.493-.79-.839.393-.545.96-.111 1.38.262z" fill="#6b5a55"/><path d="M256.081 372.398a21.91 21.91 0 01-5.043-8.51c.516-.185 1.041-.349 1.547-.559 2.751-1.143 4.859-.224 5.78 2.62a7.432 7.432 0 01-1.705 7.421c-.11-.374-.07-.836-.579-.972zM256.632 373.432a.558.558 0 01-.037.474c-.206-.06-.275-.186-.172-.356.036-.06.138-.08.21-.118z" fill="#8f4b23"/><path d="M126.135 386.27a42.493 42.493 0 0013.184-1.453 13.884 13.884 0 011.92-.256c-.517 1.345-2.283 1.475-2.77 2.849a77.637 77.637 0 01-12.437 7.777c.136-2.524-.824-4.864-1.235-7.296a7.188 7.188 0 01-.3-2.162.711.711 0 01.985.564c.299 1.21.442.007.653-.023z" fill="#8f4a22"/><path d="M84.157 400.393a2.047 2.047 0 011.73.41 1.576 1.576 0 01-1.73-.41zM358.611 379a.603.603 0 01.5-.625.698.698 0 01-.5.626zM45.62 300.094a1.184 1.184 0 01-.721 1 .914.914 0 01.722-1zM55.155 289.515a.728.728 0 01-.625.619.645.645 0 01.625-.619z" fill="#4d4437"/><path d="M141.223 384.583a.657.657 0 01.614-.486l-.614.486z" fill="#8f4a22"/><path d="M182.794 69.306a1.711 1.711 0 01-1.746.42c.476-.58 1.118-.474 1.746-.42z" fill="#5c524f"/><path d="M168.735 187.342a26.838 26.838 0 007.684.559l.768 10.076-.634.112c-4.167.182-8.234-.63-12.319-1.257q1.168-3.872 2.333-7.743a2.034 2.034 0 012.168-1.747z" fill="#424241"/><path d="M200.1 297.801a6.803 6.803 0 01-4.995-1.95c-.49-.431-.894-1.051-.29-1.666.478-.487 1.002-.157 1.483.15 1.237.788 2.484 1.56 3.727 2.337l.075 1.13z" fill="#ab7b36"/><path d="M195.875 310.213c-5.772-8.526-12.915-15.932-19.486-23.806 8.313 6.452 14.278 14.82 19.486 23.806z" fill="#ac7c37"/><path d="M203.033 322.08a23.502 23.502 0 01-11.06-7.64c-.818-1.017-1.679-1.984-2.534-2.963-.373-.426-.775-.973-.328-1.478.546-.617.966.044 1.377.355 1.213.916 1.827 2.34 2.881 3.396 3.011 3.017 5.846 6.236 9.664 8.33z" fill="#ab7b36"/><path d="M190.005 289.949a1.168 1.168 0 00.56-1.123 17.533 17.533 0 012.298 6.397 12.017 12.017 0 01-2.858-5.274z" fill="#b1813c"/><path d="M140.814 365.684c-3.252 2.797-12.152 3.23-15.83.66 5.538.466 10.73.866 15.83-.66z" fill="#af7e39"/><path d="M129.206 375.916c3.363-.676 6.626.296 9.943-.877-2.31 1.985-7.165 2.408-9.943.877z" fill="#b07d38"/><path d="M149.14 300.068c-1 3.496-3.275 6.288-5.535 8.932-3.81 4.457-8.095 8.469-13.562 10.956a15.91 15.91 0 01-5.075 1.356c-.76.075-1.577.003-1.926-.802-.32-.739.346-1.177.775-1.647 1.102-1.205 2.211-2.404 3.664-3.982-.171 2.465-2.278 3.121-2.85 4.7.451.85 1.132.608 1.732.46a23.006 23.006 0 008.79-4.65 53.705 53.705 0 0013.277-14.872c.13-.222.428-.346.647-.515zM148.596 298.9a.633.633 0 01.451.592l-.45-.591zM149.073 299.54a.519.519 0 01.447.546q-.19-.007-.38-.019l-.062-.062q-.013-.233-.005-.464z" fill="#ac7b36"/><path d="M158.139 199.797a5.65 5.65 0 014.495 1.724.978.978 0 01-.154.474c-1.823.251-3.33-.907-5.048-1.126l.707-1.072z" fill="#703514"/><path d="M140.65 289.978l.612.543-.612-.543z" fill="#4d4437"/><path d="M155.835 202.573c1.74 1.034 4.152.776 5.839 3.194-2.252-.622-3.983-1.094-5.71-1.582-.527-.149-.633-.61-.71-1.075l-.001.01a3.51 3.51 0 00.58-.547z" fill="#703614"/><path d="M128.271 247.308c-.54.295-.545-.257-.69-.488a.982.982 0 01-.027-1.27.505.505 0 01.48-.083c.398.334.347.825.342 1.283a3.265 3.265 0 01-.105.558z" fill="#713715"/><path d="M128.032 240.194c-.274-.742-.43-1.443.234-2.017.064-.055.41.056.45.159a1.453 1.453 0 01-.684 1.858z" fill="#743815"/><path d="M146.055 191.72c-3.556-.57-6.747-1.898-10.094-2.608a1.066 1.066 0 01-.913-1.19 10.568 10.568 0 01.07-1.668c.32-1.91.121-4.325 1.516-5.481 1.159-.96 3.351-.015 5.069.151 1.57.152 3.141.258 4.712.386 1.856.15 2.062.35 1.493 1.987-.917 2.643-1.177 5.416-1.853 8.422zM157.517 183.632c.748.757 2.04.528 2.682 1.477l.024.038a2.765 2.765 0 01-.418.59l-3.788 8.88c-2.339-.695-4.633-1.393-6.938-2.052-.834-.238-.886-.682-.716-1.465a71.01 71.01 0 012.155-7.513 1.59 1.59 0 012.134-1.199c1.625.403 3.243.828 4.865 1.244z" fill="#414140"/><path d="M127.294 187.97a68.437 68.437 0 011.18-8.778l5.342.557a50.812 50.812 0 00-1.431 7.597c-.075 1.018-.652 1.24-1.506 1.13-1.197-.157-2.39-.337-3.585-.506z" fill="#424241"/><path d="M141.294 169.808c-3.302-4.408-4.162-9.704-5.403-14.87 1.556 1.199 1.448 3.118 1.926 4.739.5 1.695 1.14 3.346 1.576 5.052.452 1.77 1.637 3.252 1.901 5.079z" fill="#b0803a"/><path d="M148.312 136.502a17.543 17.543 0 01-6.248-7.367c2.305 2.247 4.139 4.905 6.248 7.367z" fill="#b4833d"/><path d="M160.345 191.928c-.426 1.179-.366 2.52-1.197 3.564-.65-.175-1.255-.397-.831-1.262.47-.96.968-1.907 1.454-2.86.501-.132.754-.01.574.558z" fill="#4f453f"/><path d="M136.781 133.68c-.666.4-.52 1.071-.564 1.679-1.096-1.767-.167-3.834-.908-5.664 1.194 1.097.93 2.683 1.472 3.986z" fill="#b88943"/><path d="M160.345 191.928l-.574-.558c.508-1.174.69-2.5 1.621-3.478a8.336 8.336 0 01-1.047 4.036z" fill="#745036"/><path d="M159.805 185.736a.615.615 0 01.418-.589.623.623 0 01-.418.59z" fill="#a87832"/><path d="M155.833 202.573l-.58.546a.734.734 0 01.58-.546z" fill="#8f4a21"/><path d="M181.575 72.665l-.267.395c-.092-.13-.233-.247-.266-.39-.058-.248.027-.486.338-.418.091.02.132.269.195.413z" fill="#f0f4f4"/><path d="M167.635 192.67a3.38 3.38 0 013.464-3.575 2.862 2.862 0 013.137 2.84 3.956 3.956 0 01-3.361 3.855 3.133 3.133 0 01-3.24-3.12z" fill="#c79955"/><path d="M119.3 341.404c.327-2.414-.323-4.789-.286-7.192 6.677-.115 13.317.583 19.974.921q3.748.19 7.506.266a19.825 19.825 0 014.128.471l.003.006a12.119 12.119 0 00-.16 1.344c-.041 2.708-.708 5.442.342 8.102q-15.754-1.957-31.508-3.918z" fill="#cb9b56"/><path d="M71.183 291.797a230.378 230.378 0 014.225 5.568l4.103 5.654 3.997 5.73c1.313 1.923 2.62 3.852 3.874 5.816-1.444-1.83-2.838-3.696-4.225-5.567l-4.102-5.655-3.997-5.73a230.57 230.57 0 01-3.875-5.816zM100.373 281.45q-.332 4.657-.757 9.305l-.906 9.29-1.035 9.278q-.541 4.635-1.185 9.26.331-4.657.757-9.305l.906-9.29 1.036-9.277q.541-4.636 1.184-9.262zM54.842 309.368q4.141 2.066 8.237 4.214l8.166 4.346 8.105 4.46q4.04 2.25 8.032 4.592-4.141-2.065-8.237-4.214l-8.166-4.346-8.104-4.46q-4.04-2.251-8.033-4.592zM43.317 337.203c2.88-.14 5.762-.22 8.644-.29l8.645-.142 8.646-.013c2.883.02 5.765.048 8.648.14-2.88.141-5.762.22-8.644.291l-8.645.141-8.647.011a352.93 352.93 0 01-8.647-.138zM56.362 370.026q3.515-2.991 7.088-5.91l7.18-5.794 7.262-5.693q3.646-2.827 7.355-5.574-3.514 2.993-7.087 5.911l-7.181 5.794-7.263 5.691q-3.645 2.828-7.354 5.575zM87.416 359.186a311.803 311.803 0 01-2.953 7.57l-3.09 7.511-3.21 7.461c-1.093 2.478-2.193 4.953-3.35 7.403.943-2.54 1.943-5.057 2.952-7.57l3.092-7.511 3.21-7.461a311.763 311.763 0 013.349-7.403zM98.81 351.22q.505 4.821.917 9.648l.769 9.659.64 9.668q.295 4.836.488 9.679-.507-4.82-.918-9.648l-.768-9.658-.639-9.668q-.296-4.836-.49-9.68zM112.42 359.186a327.3 327.3 0 013.848 7.392l3.714 7.458 3.597 7.514c1.178 2.516 2.348 5.035 3.461 7.581-1.322-2.444-2.59-4.916-3.848-7.392l-3.713-7.458-3.596-7.515a327.255 327.255 0 01-3.462-7.58zM113.35 346.71q4.147 2.276 8.246 4.633l8.17 4.762 8.102 4.873q4.04 2.458 8.027 5.004-4.147-2.276-8.246-4.633l-8.17-4.763-8.102-4.874q-4.04-2.457-8.027-5.003zM119.73 326.98c2.52-.54 5.049-1.02 7.58-1.49l7.603-1.341 7.624-1.214c2.546-.382 5.093-.754 7.65-1.065-2.518.54-5.048 1.02-7.578 1.49l-7.604 1.34-7.625 1.214c-2.545.381-5.092.754-7.65 1.066zM109.308 312.201a179.47 179.47 0 013.096-5.336c1.053-1.765 2.15-3.503 3.222-5.256l3.332-5.188c1.13-1.717 2.268-3.429 3.46-5.107-.994 1.802-2.041 3.572-3.096 5.336l-3.222 5.256c-1.113 1.728-2.202 3.471-3.333 5.187a179.54 179.54 0 01-3.46 5.108zM310.62 281.45q-.331 4.657-.756 9.305l-.906 9.29-1.035 9.278q-.541 4.635-1.185 9.26.331-4.657.757-9.305l.906-9.29 1.036-9.277q.541-4.636 1.184-9.262zM265.09 309.368q4.14 2.066 8.237 4.214l8.166 4.346 8.105 4.46q4.04 2.25 8.032 4.592-4.141-2.065-8.237-4.214l-8.166-4.346-8.104-4.46q-4.04-2.251-8.033-4.592zM253.564 337.203c2.881-.14 5.763-.22 8.644-.29l8.646-.142 8.646-.013c2.883.02 5.765.048 8.648.14-2.881.141-5.763.22-8.644.291l-8.645.141-8.647.011a352.94 352.94 0 01-8.648-.138zM266.61 370.026q3.514-2.991 7.087-5.91l7.181-5.794 7.262-5.693q3.646-2.827 7.355-5.574-3.514 2.993-7.087 5.911l-7.181 5.794-7.263 5.691q-3.645 2.828-7.354 5.575zM297.664 359.186a311.762 311.762 0 01-2.953 7.57l-3.09 7.511-3.211 7.461c-1.092 2.478-2.192 4.953-3.35 7.403.944-2.54 1.944-5.057 2.953-7.57l3.091-7.511 3.211-7.461a311.244 311.244 0 013.349-7.403zM309.057 351.22q.506 4.821.918 9.648l.769 9.659.64 9.668q.295 4.836.488 9.679-.507-4.82-.918-9.648l-.768-9.658-.639-9.668q-.296-4.836-.49-9.68zM322.669 359.186a327.793 327.793 0 013.847 7.392l3.714 7.458 3.597 7.514c1.178 2.516 2.348 5.035 3.461 7.581-1.323-2.444-2.59-4.916-3.848-7.392l-3.713-7.458-3.596-7.515a327.966 327.966 0 01-3.462-7.58zM323.598 346.71q4.147 2.276 8.245 4.633l8.17 4.762 8.103 4.873q4.04 2.458 8.027 5.004-4.148-2.276-8.246-4.633l-8.17-4.763-8.102-4.874q-4.04-2.457-8.027-5.003zM329.978 326.98c2.52-.54 5.049-1.02 7.58-1.49l7.602-1.341 7.625-1.214c2.546-.382 5.093-.754 7.65-1.065-2.519.54-5.048 1.02-7.578 1.49l-7.604 1.34-7.625 1.214c-2.545.381-5.092.754-7.65 1.066zM319.556 312.201a179.449 179.449 0 013.095-5.336c1.054-1.765 2.15-3.503 3.222-5.256l3.332-5.188c1.131-1.717 2.27-3.429 3.46-5.107-.994 1.802-2.04 3.572-3.095 5.336l-3.223 5.256c-1.112 1.728-2.2 3.471-3.332 5.187a179.562 179.562 0 01-3.46 5.108zM341.27 341.116c2.054.128 4.101.318 6.147.517 2.046.198 4.086.445 6.13.665l6.114.794c2.035.289 4.07.585 6.096.944-2.054-.127-4.101-.317-6.147-.516l-6.13-.666c-2.038-.267-4.079-.506-6.114-.795-2.035-.288-4.07-.585-6.096-.943zM332.799 313.624a179.494 179.494 0 014.89-3.76c1.646-1.232 3.32-2.424 4.978-3.638l5.053-3.533c1.698-1.158 3.401-2.31 5.14-3.41-1.603 1.29-3.244 2.529-4.89 3.76l-4.977 3.638c-1.686 1.176-3.355 2.375-5.054 3.532a179.862 179.862 0 01-5.14 3.411z" fill="#3d301e"/><path d="M97.818 266.305a70.137 70.137 0 1070.137 70.138 70.139 70.139 0 00-70.137-70.138zm0 130.004c-30.04 0-59.867-29.817-59.867-59.866s29.827-59.867 59.867-59.867c30.048 0 59.866 29.818 59.866 59.867s-29.818 59.866-59.866 59.866zM310.465 266.305a70.137 70.137 0 1070.137 70.138 70.139 70.139 0 00-70.137-70.138zm0 130.004c-30.04 0-59.867-29.817-59.867-59.866s29.828-59.867 59.867-59.867c30.049 0 59.866 29.818 59.866 59.867s-29.817 59.866-59.866 59.866z" fill="#3d301e"/></g></g></svg>